<?xml version="1.0" encoding="UTF-8" standalone="no"?><!DOCTYPE svg PUBLIC "-//W3C//DTD SVG 1.1//EN" "http://www.w3.org/Graphics/SVG/1.1/DTD/svg11.dtd"><svg width="100%" height="100%" viewBox="0 0 1137 461" version="1.1" xmlns="http://www.w3.org/2000/svg" xmlns:xlink="http://www.w3.org/1999/xlink" xml:space="preserve" xmlns:serif="http://www.serif.com/" style="fill-rule:evenodd;clip-rule:evenodd;stroke-linejoin:round;stroke-miterlimit:2;"><g id="_1" serif:id="1"><g id="group-R5"><path id="path2" d="M991.071,335.727l0,-335.453l-119.205,75.988l0,378.669l264.343,0l0,-119.204l-145.137,0" style="fill:#fff;fill-rule:nonzero;"/><path id="path3" d="M230.057,340.916c-61.124,0 -110.853,-49.727 -110.853,-110.853c0,-61.127 49.729,-110.856 110.853,-110.856c61.123,0 110.852,49.729 110.852,110.856c0,61.127 -49.729,110.853 -110.852,110.853Zm473.505,-27.627c-19.529,17.169 -45.096,27.627 -73.084,27.627c-61.121,0 -110.852,-49.727 -110.852,-110.853c0,-61.127 49.731,-110.856 110.852,-110.856c39.216,0 73.72,20.493 93.431,51.311l100.481,-64.011c-40.905,-63.968 -112.513,-106.505 -193.912,-106.505c-85.755,0 -160.649,47.2 -200.211,116.951c-39.561,-69.751 -114.456,-116.951 -200.211,-116.951c-126.855,0 -230.057,103.205 -230.057,230.061c0,126.856 103.202,230.057 230.057,230.057c85.755,0 160.649,-47.197 200.211,-116.947c39.561,69.75 114.456,116.947 200.211,116.947c58.053,0 111.133,-21.636 151.652,-57.241l45.675,52.088l7.104,0l0,-206.426l-188.129,0l56.783,64.748" style="fill:#fff;fill-rule:nonzero;"/></g></g></svg>