<?xml version="1.0" encoding="UTF-8" standalone="no"?>
<svg
   xmlns:dc="http://purl.org/dc/elements/1.1/"
   xmlns:cc="http://creativecommons.org/ns#"
   xmlns:rdf="http://www.w3.org/1999/02/22-rdf-syntax-ns#"
   xmlns:svg="http://www.w3.org/2000/svg"
   xmlns="http://www.w3.org/2000/svg"
   xmlns:sodipodi="http://sodipodi.sourceforge.net/DTD/sodipodi-0.dtd"
   xmlns:inkscape="http://www.inkscape.org/namespaces/inkscape"
   version="1.1"
   id="svg2"
   xml:space="preserve"
   width="659.61334"
   height="238.16"
   viewBox="0 0 659.61334 238.16"
   sodipodi:docname="PHS logo, postive (CMYK).eps"><metadata
     id="metadata8"><rdf:RDF><cc:Work
         rdf:about=""><dc:format>image/svg+xml</dc:format><dc:type
           rdf:resource="http://purl.org/dc/dcmitype/StillImage" /></cc:Work></rdf:RDF></metadata><defs
     id="defs6" /><sodipodi:namedview
     pagecolor="#ffffff"
     bordercolor="#666666"
     borderopacity="1"
     objecttolerance="10"
     gridtolerance="10"
     guidetolerance="10"
     inkscape:pageopacity="0"
     inkscape:pageshadow="2"
     inkscape:window-width="640"
     inkscape:window-height="480"
     id="namedview4" /><g
     id="g10"
     inkscape:groupmode="layer"
     inkscape:label="ink_ext_XXXXXX"
     transform="matrix(1.3333333,0,0,-1.3333333,0,238.16)"><g
       id="g12"
       transform="scale(0.1)"><path
         d="m 160.297,844.898 c 56.004,0 84,24.258 84,72.801 0,23.801 -7.117,40.598 -21.348,50.403 -14.242,9.793 -35.121,14.695 -62.652,14.695 H 102.898 V 844.898 Z M 0,1064.69 h 166.598 c 24.73,0 47.953,-2.45 69.652,-7.34 21.699,-4.9 40.602,-13.08 56.699,-24.5 16.098,-11.45 28.809,-26.6 38.149,-45.502 9.332,-18.907 14,-42.118 14,-69.649 0,-26.601 -4.789,-49.707 -14.352,-69.304 -9.57,-19.602 -22.519,-35.696 -38.848,-48.301 -16.339,-12.598 -35.238,-21.934 -56.699,-27.992 -21.469,-6.071 -44.34,-9.114 -68.601,-9.114 h -63.7 V 608.301 H 0 v 456.389"
         style="fill:#3d3a90;fill-opacity:1;fill-rule:nonzero;stroke:none"
         id="path14" /><path
         d="M 381.492,955.492 H 484.395 V 753.199 c 0,-25.211 3.496,-42.469 10.5,-51.808 7,-9.332 17.957,-13.993 32.898,-13.993 13.059,0 24.027,3.032 32.898,9.102 8.86,6.051 18.43,15.859 28.704,29.391 V 955.492 H 692.289 V 608.301 h -83.996 l -7.703,48.301 h -2.098 C 583.551,638.852 567.574,624.98 550.543,614.949 533.5,604.922 513.09,599.898 489.293,599.898 451.492,599.898 424.07,612.25 407.043,637 390,661.719 381.492,696.031 381.492,739.898 v 215.594"
         style="fill:#3d3a90;fill-opacity:1;fill-rule:nonzero;stroke:none"
         id="path16" /><path
         d="m 858.184,706.289 c 9.332,-8.391 18.664,-14.23 28.004,-17.5 9.324,-3.269 18.425,-4.898 27.296,-4.898 17.731,0 32.903,8.058 45.5,24.148 12.602,16.109 18.903,42.109 18.903,78.063 0,62.527 -20.074,93.796 -60.199,93.796 -20.543,0 -40.375,-10.5 -59.504,-31.503 z M 755.281,1099 H 858.184 V 978.598 l -2.797,-53.203 c 13.531,12.128 28.109,21.582 43.75,28.351 15.629,6.758 31.605,10.145 47.949,10.145 21,0 39.902,-4.2 56.694,-12.598 16.81,-8.398 31.16,-20.184 43.06,-35.352 11.9,-15.164 21,-33.593 27.3,-55.293 6.29,-21.699 9.44,-45.847 9.44,-72.449 0,-29.867 -4.09,-56.48 -12.25,-79.808 -8.17,-23.34 -19.14,-43.039 -32.89,-59.153 -13.78,-16.09 -29.41,-28.347 -46.909,-36.738 -17.5,-8.398 -35.59,-12.602 -54.246,-12.602 -15.398,0 -30.918,3.743 -46.547,11.204 -15.644,7.457 -30.226,18.648 -43.75,33.589 h -2.804 l -8.399,-36.39 H 755.281 V 1099"
         style="fill:#3d3a90;fill-opacity:1;fill-rule:nonzero;stroke:none"
         id="path18" /><path
         d="m 1129.78,1099 h 102.9 V 711.898 c 0,-10.738 1.98,-18.199 5.95,-22.398 3.96,-4.199 8.05,-6.301 12.25,-6.301 2.33,0 4.31,0 5.95,0 1.63,0 3.85,0.461 6.65,1.403 l 12.6,-76.301 c -5.6,-2.34 -12.72,-4.313 -21.35,-5.949 -8.64,-1.633 -18.79,-2.454 -30.45,-2.454 -17.74,0 -32.67,2.801 -44.8,8.403 -12.14,5.59 -21.82,13.398 -29.05,23.437 -7.24,10.032 -12.49,22.16 -15.75,36.41 -3.27,14.231 -4.9,30.204 -4.9,47.954 V 1099"
         style="fill:#3d3a90;fill-opacity:1;fill-rule:nonzero;stroke:none"
         id="path20" /><path
         d="m 1307.58,955.492 h 102.9 V 608.301 h -102.9 z m 51.1,51.108 c -17.27,0 -31.5,5.01 -42.7,15.04 -11.2,10.04 -16.8,22.99 -16.8,38.86 0,15.85 5.6,28.7 16.8,38.5 11.2,9.79 25.43,14.7 42.7,14.7 17.73,0 32.08,-4.91 43.05,-14.7 10.96,-9.8 16.45,-22.65 16.45,-38.5 0,-15.87 -5.49,-28.82 -16.45,-38.86 -10.97,-10.03 -25.32,-15.04 -43.05,-15.04"
         style="fill:#3d3a90;fill-opacity:1;fill-rule:nonzero;stroke:none"
         id="path22" /><path
         d="m 1453.87,781.898 c 0,28.926 4.9,54.707 14.7,77.344 9.8,22.637 22.98,41.653 39.55,57.051 16.56,15.402 35.81,27.18 57.75,35.352 21.93,8.164 44.8,12.246 68.6,12.246 21.46,0 40.83,-3.614 58.1,-10.848 17.26,-7.238 31.73,-16.914 43.4,-29.043 l -46.9,-63.703 c -16.34,13.527 -32.44,20.305 -48.3,20.305 -25.2,0 -45.04,-8.879 -59.5,-26.602 -14.47,-17.746 -21.7,-41.777 -21.7,-72.102 0,-30.339 7.35,-54.378 22.05,-72.097 14.7,-17.742 33.25,-26.602 55.65,-26.602 12.6,0 24.03,2.563 34.3,7.692 10.26,5.14 19.6,10.961 28,17.5 l 41.3,-65.09 c -16.8,-14.949 -35.47,-25.903 -56,-32.903 -20.54,-7.007 -40.37,-10.5 -59.5,-10.5 -24.27,0 -46.79,4.09 -67.55,12.243 -20.77,8.168 -38.85,19.961 -54.25,35.359 -15.4,15.398 -27.54,34.41 -36.4,57.051 -8.87,22.621 -13.3,48.398 -13.3,77.347"
         style="fill:#3d3a90;fill-opacity:1;fill-rule:nonzero;stroke:none"
         id="path24" /><path
         d="m 1927.76,1064.69 h 102.9 V 889 h 157.5 v 175.69 h 103.61 V 608.301 h -103.61 v 190.394 h -157.5 V 608.301 h -102.9 v 456.389"
         style="fill:#3d3a90;fill-opacity:1;fill-rule:nonzero;stroke:none"
         id="path26" /><path
         d="m 2568.26,817.594 c 0,20.058 -4.44,36.406 -13.3,49.004 -8.87,12.597 -23.8,18.894 -44.8,18.894 -16.34,0 -30.69,-5.488 -43.05,-16.445 -12.37,-10.977 -20.42,-28.125 -24.15,-51.453 z m -224,-35.696 c 0,28 4.66,53.313 14,75.95 9.33,22.625 21.58,41.757 36.75,57.402 15.16,15.625 32.55,27.645 52.15,36.043 19.6,8.398 39.9,12.598 60.9,12.598 24.73,0 46.31,-4.2 64.75,-12.598 18.43,-8.398 33.83,-20.066 46.2,-35 12.36,-14.941 21.58,-32.547 27.65,-52.852 6.05,-20.293 9.1,-42.343 9.1,-66.14 0,-9.348 -0.47,-17.852 -1.4,-25.563 -0.94,-7.687 -1.87,-13.636 -2.8,-17.847 h -207.9 c 4.66,-26.59 15.05,-45.852 31.15,-57.743 16.1,-11.91 35.81,-17.847 59.15,-17.847 24.73,0 49.7,7.687 74.9,23.09 l 34.3,-62.289 c -17.74,-12.141 -37.45,-21.704 -59.15,-28.704 -21.7,-7.007 -43.05,-10.5 -64.05,-10.5 -24.75,0 -47.84,4.09 -69.3,12.243 -21.47,8.168 -40.14,20.058 -56,35.711 -15.87,15.617 -28.24,34.648 -37.1,57.046 -8.87,22.403 -13.3,48.051 -13.3,77"
         style="fill:#3d3a90;fill-opacity:1;fill-rule:nonzero;stroke:none"
         id="path28" /><path
         d="m 2779.66,712.59 c 0,-11.199 3.61,-19.488 10.85,-24.84 7.22,-5.371 16.9,-8.059 29.05,-8.059 12.13,0 22.39,2.559 30.8,7.707 8.4,5.122 17.26,12.352 26.59,21.704 V 770 c -36.86,-5.141 -62.29,-12.602 -76.3,-22.41 -13.99,-9.789 -20.99,-21.461 -20.99,-35 z m -98,-7.692 c 0,36.391 15.4,64.852 46.2,85.399 30.8,20.527 80.5,34.297 149.09,41.301 -0.93,15.398 -5.59,27.644 -13.99,36.746 -8.4,9.101 -21.94,13.652 -40.61,13.652 -14.94,0 -29.86,-2.801 -44.79,-8.398 -14.94,-5.606 -30.8,-13.301 -47.6,-23.106 l -36.41,67.903 c 22.41,13.535 45.85,24.5 70.36,32.898 24.5,8.398 50.5,12.598 78.04,12.598 44.81,0 78.99,-12.715 102.56,-38.145 23.56,-25.437 35.34,-64.988 35.34,-118.652 V 608.301 h -83.99 L 2888.15,644 h -2.1 c -14.94,-13.078 -30.68,-23.691 -47.24,-31.859 -16.57,-8.153 -34.65,-12.243 -54.25,-12.243 -15.87,0 -30.11,2.684 -42.7,8.043 -12.6,5.368 -23.34,12.84 -32.2,22.411 -8.87,9.558 -15.75,20.636 -20.66,33.25 -4.89,12.597 -7.34,26.359 -7.34,41.296"
         style="fill:#3d3a90;fill-opacity:1;fill-rule:nonzero;stroke:none"
         id="path30" /><path
         d="m 3040.75,1099 h 102.9 V 711.898 c 0,-10.738 1.98,-18.199 5.95,-22.398 3.96,-4.199 8.06,-6.301 12.26,-6.301 2.32,0 4.3,0 5.94,0 1.63,0 3.85,0.461 6.65,1.403 l 12.6,-76.301 c -5.59,-2.34 -12.71,-4.313 -21.35,-5.949 -8.64,-1.633 -18.79,-2.454 -30.45,-2.454 -17.74,0 -32.67,2.801 -44.8,8.403 -12.14,5.59 -21.82,13.398 -29.04,23.437 -7.25,10.032 -12.5,22.16 -15.76,36.41 -3.27,14.231 -4.9,30.204 -4.9,47.954 V 1099"
         style="fill:#3d3a90;fill-opacity:1;fill-rule:nonzero;stroke:none"
         id="path32" /><path
         d="m 3230.45,874.996 h -47.6 v 76.297 l 53.19,4.199 11.91,92.398 h 85.4 v -92.398 h 83.3 v -80.496 h -83.3 V 735.699 c 0,-19.597 4.08,-33.719 12.25,-42.347 8.16,-8.653 19.01,-12.954 32.55,-12.954 5.6,0 11.31,0.704 17.15,2.102 5.83,1.391 11.08,3.02 15.74,4.898 l 16.11,-74.898 c -9.34,-2.809 -20.3,-5.602 -32.9,-8.398 -12.6,-2.813 -27.3,-4.204 -44.1,-4.204 -21.47,0 -39.79,3.274 -54.95,9.793 -15.17,6.539 -27.54,15.641 -37.1,27.309 -9.57,11.66 -16.57,25.781 -21,42.352 -4.44,16.546 -6.65,34.867 -6.65,54.937 v 140.707"
         style="fill:#3d3a90;fill-opacity:1;fill-rule:nonzero;stroke:none"
         id="path34" /><path
         d="m 3462.15,1099 h 102.9 V 978.598 l -4.9,-62.305 c 13.05,11.66 28.23,22.512 45.49,32.551 17.27,10.027 37.81,15.047 61.61,15.047 37.8,0 65.21,-12.364 82.25,-37.098 17.02,-24.738 25.55,-59.035 25.55,-102.902 v -215.59 h -102.9 v 202.301 c 0,25.195 -3.39,42.449 -10.15,51.796 -6.78,9.325 -17.62,13.993 -32.56,13.993 -13.06,0 -24.26,-2.918 -33.59,-8.75 -9.35,-5.84 -19.6,-14.11 -30.8,-24.844 V 608.301 h -102.9 V 1099"
         style="fill:#3d3a90;fill-opacity:1;fill-rule:nonzero;stroke:none"
         id="path36" /><path
         d="m 1502.2,108.488 c 16.33,-17.2575 35.58,-31.1482 57.75,-41.6482 22.16,-10.5 45.15,-15.75 68.95,-15.75 30.33,0 53.9,6.879 70.7,20.6485 16.8,13.7617 25.2,31.8517 25.2,54.2497 0,11.66 -1.99,21.582 -5.95,29.762 -3.97,8.148 -9.34,15.148 -16.1,20.988 -6.77,5.832 -14.82,11.094 -24.15,15.762 -9.34,4.648 -19.37,9.559 -30.1,14.691 l -65.8,28.7 c -10.74,4.66 -21.7,10.269 -32.9,16.8 -11.2,6.528 -21.24,14.457 -30.1,23.797 -8.87,9.344 -16.1,20.41 -21.7,33.25 -5.6,12.832 -8.4,27.66 -8.4,44.453 0,17.258 3.61,33.36 10.85,48.309 7.23,14.93 17.26,27.879 30.1,38.84 12.83,10.961 28,19.492 45.5,25.551 17.5,6.058 36.75,9.097 57.75,9.097 27.53,0 52.96,-5.238 76.3,-15.75 23.33,-10.5 43.16,-24.148 59.5,-40.949 l -31.5,-37.801 c -14,13.532 -29.52,24.153 -46.55,31.864 -17.04,7.687 -36.29,11.546 -57.75,11.546 -25.67,0 -46.32,-5.957 -61.95,-17.847 -15.64,-11.91 -23.45,-28.352 -23.45,-49.36 0,-11.203 2.21,-20.64 6.65,-28.351 4.43,-7.692 10.38,-14.461 17.85,-20.289 7.46,-5.852 15.63,-10.981 24.5,-15.403 8.85,-4.449 17.96,-8.527 27.3,-12.257 l 65.1,-28 c 13.06,-5.59 25.43,-12.02 37.1,-19.243 11.66,-7.25 21.7,-15.648 30.1,-25.207 8.4,-9.57 15.05,-20.769 19.95,-33.589 4.9,-12.84 7.35,-27.661 7.35,-44.461 0,-18.2 -3.62,-35.2426 -10.85,-51.1019 -7.24,-15.8672 -17.62,-29.75 -31.15,-41.6485 -13.55,-11.8906 -29.87,-21.2422 -49,-28 C 1674.16,3.37891 1652.46,0 1628.2,0 c -32.2,0 -62.07,6.05859 -89.6,18.1992 -27.54,12.1328 -51.34,28.6914 -71.4,49.6992 l 35,40.5896"
         style="fill:#9237a0;fill-opacity:1;fill-rule:nonzero;stroke:none"
         id="path38" /><path
         d="m 1821.4,177.801 c 0,28.461 4.43,53.781 13.3,75.949 8.86,22.148 20.76,40.941 35.7,56.34 14.93,15.398 32.31,27.058 52.15,35 19.83,7.93 40.71,11.91 62.65,11.91 22.4,0 41.65,-4.09 57.75,-12.262 16.1,-8.156 29.98,-17.617 41.65,-28.347 l -28.7,-37.102 c -10.27,8.859 -20.89,16.109 -31.85,21.699 -10.97,5.614 -23.22,8.403 -36.75,8.403 -15.4,0 -29.64,-3.141 -42.7,-9.442 -13.07,-6.301 -24.27,-15.301 -33.6,-26.961 -9.34,-11.668 -16.69,-25.539 -22.05,-41.648 -5.37,-16.102 -8.05,-33.942 -8.05,-53.539 0,-19.602 2.56,-37.352 7.7,-53.199 5.13,-15.872 12.25,-29.5317 21.35,-40.9536 9.1,-11.4492 20.18,-20.2968 33.25,-26.5976 13.06,-6.3008 27.3,-9.461 42.7,-9.461 16.33,0 31.15,3.379 44.45,10.1485 13.3,6.7734 25.08,14.8125 35.35,24.1523 l 25.9,-37.789 C 2076.2,30.5508 2059.05,19.8203 2040.15,11.8906 2021.25,3.96094 2001.53,0 1981,0 c -22.4,0 -43.4,3.96094 -63,11.8906 -19.6,7.9297 -36.52,19.4805 -50.75,34.6602 -14.24,15.1484 -25.44,33.8281 -33.6,55.9882 -8.17,22.16 -12.25,47.25 -12.25,75.262"
         style="fill:#9237a0;fill-opacity:1;fill-rule:nonzero;stroke:none"
         id="path40" /><path
         d="m 2161.59,177.801 c 0,-19.602 2.33,-37.352 7,-53.199 4.66,-15.872 11.31,-29.5317 19.95,-40.9536 8.63,-11.4492 19.01,-20.2968 31.15,-26.5976 12.13,-6.3008 25.43,-9.461 39.9,-9.461 14.46,0 27.76,3.1602 39.9,9.461 12.13,6.3008 22.51,15.1484 31.15,26.5976 8.64,11.4219 15.29,25.0816 19.96,40.9536 4.65,15.847 7,33.597 7,53.199 0,19.597 -2.35,37.437 -7,53.539 -4.67,16.109 -11.32,29.98 -19.96,41.648 -8.64,11.66 -19.02,20.66 -31.15,26.961 -12.14,6.301 -25.44,9.442 -39.9,9.442 -14.47,0 -27.77,-3.141 -39.9,-9.442 -12.14,-6.301 -22.52,-15.301 -31.15,-26.961 -8.64,-11.668 -15.29,-25.539 -19.95,-41.648 -4.67,-16.102 -7,-33.942 -7,-53.539 z m -59.5,0 c 0,28.461 4.31,53.781 12.95,75.949 8.63,22.148 20.18,40.941 34.65,56.34 14.46,15.398 31.15,27.058 50.05,35 18.9,7.93 38.85,11.91 59.85,11.91 21,0 40.96,-3.98 59.85,-11.91 18.91,-7.942 35.59,-19.602 50.05,-35 14.47,-15.399 26.02,-34.192 34.65,-56.34 8.63,-22.168 12.96,-47.488 12.96,-75.949 0,-28.012 -4.33,-53.102 -12.96,-75.262 -8.63,-22.1601 -20.18,-40.8398 -34.65,-55.9882 C 2355.03,31.3711 2338.35,19.8203 2319.44,11.8906 2300.55,3.96094 2280.59,0 2259.59,0 c -21,0 -40.95,3.96094 -59.85,11.8906 -18.9,7.9297 -35.59,19.4805 -50.05,34.6602 -14.47,15.1484 -26.02,33.8281 -34.65,55.9882 -8.64,22.16 -12.95,47.25 -12.95,75.262"
         style="fill:#9237a0;fill-opacity:1;fill-rule:nonzero;stroke:none"
         id="path42" /><path
         d="m 2482.19,301.691 h -50.4 v 43.399 l 53.2,3.5 7,95.199 h 48.29 V 348.59 h 91.71 v -46.899 h -91.71 v -189 c 0,-20.9996 3.86,-37.2222 11.56,-48.6402 7.7,-11.4492 21.34,-17.1602 40.94,-17.1602 6.07,0 12.61,0.9414 19.61,2.8008 6.99,1.8672 13.29,3.9688 18.9,6.2969 l 11.2,-43.3985 C 2633.14,9.32031 2623,6.41016 2612.04,3.83984 2601.06,1.28125 2590.21,0 2579.49,0 c -18.2,0 -33.49,2.80078 -45.85,8.39063 -12.37,5.59767 -22.4,13.30077 -30.1,23.09767 -7.7,9.8008 -13.19,21.7109 -16.45,35.7031 -3.27,14.0078 -4.9,29.4102 -4.9,46.1996 v 188.3"
         style="fill:#9237a0;fill-opacity:1;fill-rule:nonzero;stroke:none"
         id="path44" /><path
         d="m 2676.79,506.789 h 57.4 V 72.8008 c 0,-9.3516 1.63,-15.8789 4.9,-19.6016 3.25,-3.75 6.99,-5.6094 11.19,-5.6094 1.87,0 3.62,0 5.26,0 1.63,0 4.08,0.461 7.35,1.3985 l 7.7,-43.39846 c -3.74,-1.85156 -8.18,-3.25 -13.3,-4.19921 C 2752.15,0.460938 2745.62,0 2737.69,0 c -21.95,0 -37.57,6.53906 -46.9,19.6016 -9.34,13.0468 -14,32.1875 -14,57.3984 v 429.789"
         style="fill:#9237a0;fill-opacity:1;fill-rule:nonzero;stroke:none"
         id="path46" /><path
         d="m 2859.48,100.801 c 0,-19.6018 5.71,-33.6096 17.15,-42.0119 11.43,-8.3907 25.55,-12.5899 42.35,-12.5899 16.33,0 31.85,3.8399 46.55,11.5391 14.7,7.7031 30.21,19.0117 46.55,33.9531 v 94.5076 c -28.47,-3.738 -52.5,-8.179 -72.1,-13.301 -19.6,-5.148 -35.35,-11.207 -47.25,-18.207 -11.9,-7 -20.42,-15.05 -25.55,-24.152 -5.14,-9.098 -7.7,-19.019 -7.7,-29.738 z m -56.7,-4.1994 c 0,37.3204 16.68,65.9104 50.05,85.7384 33.36,19.832 86.45,33.711 159.25,41.648 0,10.731 -1.05,21.231 -3.15,31.5 -2.1,10.274 -5.84,19.364 -11.2,27.313 -5.37,7.929 -12.49,14.34 -21.35,19.25 -8.87,4.898 -20.3,7.34 -34.3,7.34 -20.07,0 -38.62,-3.743 -55.65,-11.192 -17.05,-7.469 -32.32,-15.879 -45.85,-25.211 l -23.1,39.91 c 15.86,10.25 35.23,20.172 58.1,29.743 22.86,9.558 48.06,14.359 75.6,14.359 41.53,0 71.63,-12.73 90.3,-38.16 18.66,-25.442 28,-59.391 28,-101.84 V 8.39063 h -47.6 l -4.9,40.59767 h -1.4 C 2999.24,35.4492 2981.63,23.8984 2962.73,14.3398 2943.83,4.78125 2923.88,0 2902.88,0 c -28.94,0 -52.85,8.39063 -71.75,25.1914 -18.9,16.8086 -28.35,40.6094 -28.35,71.4102"
         style="fill:#9237a0;fill-opacity:1;fill-rule:nonzero;stroke:none"
         id="path48" /><path
         d="m 3145.08,348.59 h 47.6 l 4.9,-48.988 h 2.1 c 16.33,16.32 33.47,29.98 51.44,40.937 17.96,10.961 38.85,16.461 62.65,16.461 35.94,0 62.19,-11.199 78.75,-33.609 16.56,-22.403 24.85,-55.532 24.85,-99.403 V 8.39063 h -57.4 V 216.289 c 0,32.199 -5.14,55.41 -15.4,69.652 -10.26,14.231 -26.6,21.348 -48.99,21.348 -17.75,0 -33.37,-4.43 -46.91,-13.301 -13.53,-8.867 -28.93,-21.929 -46.2,-39.199 V 8.39063 h -57.39 V 348.59"
         style="fill:#9237a0;fill-opacity:1;fill-rule:nonzero;stroke:none"
         id="path50" /><path
         d="m 3534.98,178.488 c 0,-41.058 8.15,-73.039 24.49,-95.8982 16.33,-22.871 39.44,-34.289 69.31,-34.289 15.86,0 30.8,3.8398 44.79,11.539 14.01,7.6993 28,19.4805 42.01,35.3516 V 272.988 c -14.48,13.063 -28.35,22.282 -41.65,27.653 -13.3,5.359 -26.96,8.058 -40.95,8.058 -13.55,0 -26.25,-3.16 -38.16,-9.461 -11.89,-6.297 -22.28,-15.156 -31.15,-26.597 -8.87,-11.43 -15.87,-25.09 -20.99,-40.95 -5.14,-15.859 -7.7,-33.601 -7.7,-53.203 z m -59.5,-0.687 c 0,27.531 4.07,52.371 12.24,74.539 8.17,22.172 19.02,40.961 32.55,56.359 13.54,15.403 29.16,27.289 46.91,35.692 17.72,8.41 36.39,12.609 55.99,12.609 19.6,0 36.63,-3.512 51.11,-10.512 14.45,-6.988 29.16,-16.558 44.1,-28.687 l -2.8,58.09 v 130.898 h 58.09 V 8.39063 h -47.6 l -4.9,39.91017 h -2.1 C 3705.54,35.2188 3690.03,23.8984 3672.53,14.3398 3655.03,4.78125 3636.23,0 3616.17,0 3573.23,0 3539.05,15.3984 3513.62,46.1992 3488.18,77 3475.48,120.852 3475.48,177.801"
         style="fill:#9237a0;fill-opacity:1;fill-rule:nonzero;stroke:none"
         id="path52" /><path
         d="m 4192.95,1193.53 h -374.46 c -26.13,0 -47.27,-21.17 -47.27,-47.27 0,-26.1 21.14,-47.26 47.27,-47.26 h 374.62 l 47.19,47.18 -47.35,47.35"
         style="fill:#4299da;fill-opacity:1;fill-rule:nonzero;stroke:none"
         id="path54" /><path
         d="m 4421.16,1099 h 374.64 c 26.1,0 47.27,21.16 47.27,47.27 0,26.09 -21.17,47.25 -47.27,47.25 h -374.48 l -47.35,-47.34 47.19,-47.18"
         style="fill:#4299da;fill-opacity:1;fill-rule:nonzero;stroke:none"
         id="path56" /><path
         d="m 4354.4,1260.28 v 372.41 c 0,26.1 -21.14,47.27 -47.24,47.27 -26.12,0 -47.27,-21.17 -47.27,-47.27 v -372.41 l 47.26,-47.25 47.25,47.25"
         style="fill:#4299da;fill-opacity:1;fill-rule:nonzero;stroke:none"
         id="path58" /><path
         d="m 4259.9,1099 h -66.79 L 4012.89,918.766 c -18.46,-18.45 -18.46,-48.403 0,-66.832 9.21,-9.239 21.32,-13.86 33.43,-13.86 12.08,0 24.19,4.621 33.4,13.86 l 180.16,180.136 0.02,66.93"
         style="fill:#9237a0;fill-opacity:1;fill-rule:nonzero;stroke:none"
         id="path60" /><path
         d="m 4354.42,1032.07 179.75,-179.75 c 9.21,-9.242 21.32,-13.859 33.4,-13.859 12.11,0 24.22,4.617 33.43,13.859 18.46,18.457 18.46,48.379 0,66.84 L 4421.16,1099 h -66.76 l 0.02,-66.93"
         style="fill:#9237a0;fill-opacity:1;fill-rule:nonzero;stroke:none"
         id="path62" /><path
         d="m 4259.9,1260.28 -189.7,189.68 c -18.44,18.45 -48.38,18.45 -66.84,0 -18.46,-18.46 -18.46,-48.38 0,-66.84 l 189.6,-189.59 h 66.94 v 66.75"
         style="fill:#70c52d;fill-opacity:1;fill-rule:nonzero;stroke:none"
         id="path64" /><path
         d="m 4933.28,1772.32 c -18.43,18.47 -48.4,18.47 -66.83,0 L 4354.4,1260.27 v -66.75 h 66.92 l 511.96,511.98 c 18.46,18.45 18.46,48.36 0,66.82"
         style="fill:#70c52d;fill-opacity:1;fill-rule:nonzero;stroke:none"
         id="path66" /><path
         d="m 4354.4,1260.28 -47.25,-47.25 -47.26,47.25 v -66.75 h -66.94 l 47.35,-47.35 32.6,32.6 c 9.34,9.34 21.6,13.91 33.84,13.81 0.15,0 0.28,0.05 0.41,0.05 0.13,0 0.26,-0.05 0.39,-0.05 12.24,0.1 24.52,-4.47 33.84,-13.81 l 32.59,-32.59 47.35,47.34 h -66.92 v 66.75"
         style="fill:#286e3c;fill-opacity:1;fill-rule:nonzero;stroke:none"
         id="path68" /><path
         d="m 4298.06,1099.93 c 3.05,-0.59 6.12,-0.9 9.19,-0.9 12.08,0 24.19,4.6 33.4,13.83 l 33.32,33.32 -32.59,32.59 c -9.32,9.36 -21.61,13.92 -33.84,13.81 -0.13,0 -0.26,0.06 -0.39,0.06 -0.13,0 -0.26,-0.06 -0.41,-0.06 -12.24,0.11 -24.5,-4.45 -33.85,-13.81 l -32.59,-32.59 33.26,-33.27 c 6.95,-6.94 15.54,-11.28 24.5,-12.98"
         style="fill:#241923;fill-opacity:1;fill-rule:nonzero;stroke:none"
         id="path70" /><path
         d="m 4340.66,1112.87 c -9.22,-9.25 -21.32,-13.84 -33.4,-13.84 -3.08,0 -6.15,0.31 -9.19,0.91 -8.96,1.7 -17.56,6.04 -24.5,12.98 l -33.27,33.26 -47.18,-47.18 h 66.78 V 655.352 c 0,-6.532 1.32,-12.731 3.7,-18.391 7.18,-16.961 23.98,-28.871 43.56,-28.871 16.3,0 30.68,8.269 39.18,20.84 5.09,7.539 8.06,16.629 8.06,26.422 V 1099 h 66.77 l -47.19,47.19 -33.32,-33.32"
         style="fill:#3d3a90;fill-opacity:1;fill-rule:nonzero;stroke:none"
         id="path72" /></g></g></svg>
