<?xml version="1.0" encoding="UTF-8" standalone="no"?>
<!DOCTYPE svg PUBLIC "-//W3C//DTD SVG 1.1//EN" "http://www.w3.org/Graphics/SVG/1.1/DTD/svg11.dtd">
<svg width="100%" height="100%" viewBox="0 0 660 239" version="1.1" xmlns="http://www.w3.org/2000/svg" xmlns:xlink="http://www.w3.org/1999/xlink" xml:space="preserve" xmlns:serif="http://www.serif.com/" style="fill-rule:evenodd;clip-rule:evenodd;stroke-linejoin:round;stroke-miterlimit:2;">
    <g id="ink_ext_XXXXXX" transform="matrix(1.333333,0,0,-1.333333,0,238.16)">
        <g id="g12" transform="matrix(0.1,0,0,0.1,0,0)">
            <path id="path14" d="M160.297,844.898C216.301,844.898 244.297,869.156 244.297,917.699C244.297,941.5 237.18,958.297 222.949,968.102C208.707,977.895 187.828,982.797 160.297,982.797L102.898,982.797L102.898,844.898L160.297,844.898ZM0,1064.69L166.598,1064.69C191.328,1064.69 214.551,1062.24 236.25,1057.35C257.949,1052.45 276.852,1044.27 292.949,1032.85C309.047,1021.4 321.758,1006.25 331.098,987.348C340.43,968.441 345.098,945.23 345.098,917.699C345.098,891.098 340.309,867.992 330.746,848.395C321.176,828.793 308.227,812.699 291.898,800.094C275.559,787.496 256.66,778.16 235.199,772.102C213.73,766.031 190.859,762.988 166.598,762.988L102.898,762.988L102.898,608.301L0,608.301L0,1064.69" style="fill:white;fill-rule:nonzero;"/>
            <path id="path16" d="M381.492,955.492L484.395,955.492L484.395,753.199C484.395,727.988 487.891,710.73 494.895,701.391C501.895,692.059 512.852,687.398 527.793,687.398C540.852,687.398 551.82,690.43 560.691,696.5C569.551,702.551 579.121,712.359 589.395,725.891L589.395,955.492L692.289,955.492L692.289,608.301L608.293,608.301L600.59,656.602L598.492,656.602C583.551,638.852 567.574,624.98 550.543,614.949C533.5,604.922 513.09,599.898 489.293,599.898C451.492,599.898 424.07,612.25 407.043,637C390,661.719 381.492,696.031 381.492,739.898L381.492,955.492" style="fill:white;fill-rule:nonzero;"/>
            <path id="path18" d="M858.184,706.289C867.516,697.898 876.848,692.059 886.188,688.789C895.512,685.52 904.613,683.891 913.484,683.891C931.215,683.891 946.387,691.949 958.984,708.039C971.586,724.148 977.887,750.148 977.887,786.102C977.887,848.629 957.813,879.898 917.688,879.898C897.145,879.898 877.313,869.398 858.184,848.395L858.184,706.289ZM755.281,1099L858.184,1099L858.184,978.598L855.387,925.395C868.918,937.523 883.496,946.977 899.137,953.746C914.766,960.504 930.742,963.891 947.086,963.891C968.086,963.891 986.988,959.691 1003.78,951.293C1020.59,942.895 1034.94,931.109 1046.84,915.941C1058.74,900.777 1067.84,882.348 1074.14,860.648C1080.43,838.949 1083.58,814.801 1083.58,788.199C1083.58,758.332 1079.49,731.719 1071.33,708.391C1063.16,685.051 1052.19,665.352 1038.44,649.238C1024.66,633.148 1009.03,620.891 991.531,612.5C974.031,604.102 955.941,599.898 937.285,599.898C921.887,599.898 906.367,603.641 890.738,611.102C875.094,618.559 860.512,629.75 846.988,644.691L844.184,644.691L835.785,608.301L755.281,608.301L755.281,1099" style="fill:white;fill-rule:nonzero;"/>
            <path id="path20" d="M1129.78,1099L1232.68,1099L1232.68,711.898C1232.68,701.16 1234.66,693.699 1238.63,689.5C1242.59,685.301 1246.68,683.199 1250.88,683.199L1256.83,683.199C1258.46,683.199 1260.68,683.66 1263.48,684.602L1276.08,608.301C1270.48,605.961 1263.36,603.988 1254.73,602.352C1246.09,600.719 1235.94,599.898 1224.28,599.898C1206.54,599.898 1191.61,602.699 1179.48,608.301C1167.34,613.891 1157.66,621.699 1150.43,631.738C1143.19,641.77 1137.94,653.898 1134.68,668.148C1131.41,682.379 1129.78,698.352 1129.78,716.102L1129.78,1099" style="fill:white;fill-rule:nonzero;"/>
            <path id="path22" d="M1307.58,955.492L1410.48,955.492L1410.48,608.301L1307.58,608.301L1307.58,955.492ZM1358.68,1006.6C1341.41,1006.6 1327.18,1011.61 1315.98,1021.64C1304.78,1031.68 1299.18,1044.63 1299.18,1060.5C1299.18,1076.35 1304.78,1089.2 1315.98,1099C1327.18,1108.79 1341.41,1113.7 1358.68,1113.7C1376.41,1113.7 1390.76,1108.79 1401.73,1099C1412.69,1089.2 1418.18,1076.35 1418.18,1060.5C1418.18,1044.63 1412.69,1031.68 1401.73,1021.64C1390.76,1011.61 1376.41,1006.6 1358.68,1006.6" style="fill:white;fill-rule:nonzero;"/>
            <path id="path24" d="M1453.87,781.898C1453.87,810.824 1458.77,836.605 1468.57,859.242C1478.37,881.879 1491.55,900.895 1508.12,916.293C1524.68,931.695 1543.93,943.473 1565.87,951.645C1587.8,959.809 1610.67,963.891 1634.47,963.891C1655.93,963.891 1675.3,960.277 1692.57,953.043C1709.83,945.805 1724.3,936.129 1735.97,924L1689.07,860.297C1672.73,873.824 1656.63,880.602 1640.77,880.602C1615.57,880.602 1595.73,871.723 1581.27,854C1566.8,836.254 1559.57,812.223 1559.57,781.898C1559.57,751.559 1566.92,727.52 1581.62,709.801C1596.32,692.059 1614.87,683.199 1637.27,683.199C1649.87,683.199 1661.3,685.762 1671.57,690.891C1681.83,696.031 1691.17,701.852 1699.57,708.391L1740.87,643.301C1724.07,628.352 1705.4,617.398 1684.87,610.398C1664.33,603.391 1644.5,599.898 1625.37,599.898C1601.1,599.898 1578.58,603.988 1557.82,612.141C1537.05,620.309 1518.97,632.102 1503.57,647.5C1488.17,662.898 1476.03,681.91 1467.17,704.551C1458.3,727.172 1453.87,752.949 1453.87,781.898" style="fill:white;fill-rule:nonzero;"/>
            <path id="path26" d="M1927.76,1064.69L2030.66,1064.69L2030.66,889L2188.16,889L2188.16,1064.69L2291.77,1064.69L2291.77,608.301L2188.16,608.301L2188.16,798.695L2030.66,798.695L2030.66,608.301L1927.76,608.301L1927.76,1064.69" style="fill:white;fill-rule:nonzero;"/>
            <path id="path28" d="M2568.26,817.594C2568.26,837.652 2563.82,854 2554.96,866.598C2546.09,879.195 2531.16,885.492 2510.16,885.492C2493.82,885.492 2479.47,880.004 2467.11,869.047C2454.74,858.07 2446.69,840.922 2442.96,817.594L2568.26,817.594ZM2344.26,781.898C2344.26,809.898 2348.92,835.211 2358.26,857.848C2367.59,880.473 2379.84,899.605 2395.01,915.25C2410.17,930.875 2427.56,942.895 2447.16,951.293C2466.76,959.691 2487.06,963.891 2508.06,963.891C2532.79,963.891 2554.37,959.691 2572.81,951.293C2591.24,942.895 2606.64,931.227 2619.01,916.293C2631.37,901.352 2640.59,883.746 2646.66,863.441C2652.71,843.148 2655.76,821.098 2655.76,797.301C2655.76,787.953 2655.29,779.449 2654.36,771.738C2653.42,764.051 2652.49,758.102 2651.56,753.891L2443.66,753.891C2448.32,727.301 2458.71,708.039 2474.81,696.148C2490.91,684.238 2510.62,678.301 2533.96,678.301C2558.69,678.301 2583.66,685.988 2608.86,701.391L2643.16,639.102C2625.42,626.961 2605.71,617.398 2584.01,610.398C2562.31,603.391 2540.96,599.898 2519.96,599.898C2495.21,599.898 2472.12,603.988 2450.66,612.141C2429.19,620.309 2410.52,632.199 2394.66,647.852C2378.79,663.469 2366.42,682.5 2357.56,704.898C2348.69,727.301 2344.26,752.949 2344.26,781.898" style="fill:white;fill-rule:nonzero;"/>
            <path id="path30" d="M2779.66,712.59C2779.66,701.391 2783.27,693.102 2790.51,687.75C2797.73,682.379 2807.41,679.691 2819.56,679.691C2831.69,679.691 2841.95,682.25 2850.36,687.398C2858.76,692.52 2867.62,699.75 2876.95,709.102L2876.95,770C2840.09,764.859 2814.66,757.398 2800.65,747.59C2786.66,737.801 2779.66,726.129 2779.66,712.59ZM2681.66,704.898C2681.66,741.289 2697.06,769.75 2727.86,790.297C2758.66,810.824 2808.36,824.594 2876.95,831.598C2876.02,846.996 2871.36,859.242 2862.96,868.344C2854.56,877.445 2841.02,881.996 2822.35,881.996C2807.41,881.996 2792.49,879.195 2777.56,873.598C2762.62,867.992 2746.76,860.297 2729.96,850.492L2693.55,918.395C2715.96,931.93 2739.4,942.895 2763.91,951.293C2788.41,959.691 2814.41,963.891 2841.95,963.891C2886.76,963.891 2920.94,951.176 2944.51,925.746C2968.07,900.309 2979.85,860.758 2979.85,807.094L2979.85,608.301L2895.86,608.301L2888.15,644L2886.05,644C2871.11,630.922 2855.37,620.309 2838.81,612.141C2822.24,603.988 2804.16,599.898 2784.56,599.898C2768.69,599.898 2754.45,602.582 2741.86,607.941C2729.26,613.309 2718.52,620.781 2709.66,630.352C2700.79,639.91 2693.91,650.988 2689,663.602C2684.11,676.199 2681.66,689.961 2681.66,704.898" style="fill:white;fill-rule:nonzero;"/>
            <path id="path32" d="M3040.75,1099L3143.65,1099L3143.65,711.898C3143.65,701.16 3145.63,693.699 3149.6,689.5C3153.56,685.301 3157.66,683.199 3161.86,683.199L3167.8,683.199C3169.43,683.199 3171.65,683.66 3174.45,684.602L3187.05,608.301C3181.46,605.961 3174.34,603.988 3165.7,602.352C3157.06,600.719 3146.91,599.898 3135.25,599.898C3117.51,599.898 3102.58,602.699 3090.45,608.301C3078.31,613.891 3068.63,621.699 3061.41,631.738C3054.16,641.77 3048.91,653.898 3045.65,668.148C3042.38,682.379 3040.75,698.352 3040.75,716.102L3040.75,1099" style="fill:white;fill-rule:nonzero;"/>
            <path id="path34" d="M3230.45,874.996L3182.85,874.996L3182.85,951.293L3236.04,955.492L3247.95,1047.89L3333.35,1047.89L3333.35,955.492L3416.65,955.492L3416.65,874.996L3333.35,874.996L3333.35,735.699C3333.35,716.102 3337.43,701.98 3345.6,693.352C3353.76,684.699 3364.61,680.398 3378.15,680.398C3383.75,680.398 3389.46,681.102 3395.3,682.5C3401.13,683.891 3406.38,685.52 3411.04,687.398L3427.15,612.5C3417.81,609.691 3406.85,606.898 3394.25,604.102C3381.65,601.289 3366.95,599.898 3350.15,599.898C3328.68,599.898 3310.36,603.172 3295.2,609.691C3280.03,616.23 3267.66,625.332 3258.1,637C3248.53,648.66 3241.53,662.781 3237.1,679.352C3232.66,695.898 3230.45,714.219 3230.45,734.289L3230.45,874.996" style="fill:white;fill-rule:nonzero;"/>
            <path id="path36" d="M3462.15,1099L3565.05,1099L3565.05,978.598L3560.15,916.293C3573.2,927.953 3588.38,938.805 3605.64,948.844C3622.91,958.871 3643.45,963.891 3667.25,963.891C3705.05,963.891 3732.46,951.527 3749.5,926.793C3766.52,902.055 3775.05,867.758 3775.05,823.891L3775.05,608.301L3672.15,608.301L3672.15,810.602C3672.15,835.797 3668.76,853.051 3662,862.398C3655.22,871.723 3644.38,876.391 3629.44,876.391C3616.38,876.391 3605.18,873.473 3595.85,867.641C3586.5,861.801 3576.25,853.531 3565.05,842.797L3565.05,608.301L3462.15,608.301L3462.15,1099" style="fill:white;fill-rule:nonzero;"/>
            <path id="path38" d="M1502.2,108.488C1518.53,91.231 1537.78,77.34 1559.95,66.84C1582.11,56.34 1605.1,51.09 1628.9,51.09C1659.23,51.09 1682.8,57.969 1699.6,71.738C1716.4,85.5 1724.8,103.59 1724.8,125.988C1724.8,137.648 1722.81,147.57 1718.85,155.75C1714.88,163.898 1709.51,170.898 1702.75,176.738C1695.98,182.57 1687.93,187.832 1678.6,192.5C1669.26,197.148 1659.23,202.059 1648.5,207.191L1582.7,235.891C1571.96,240.551 1561,246.16 1549.8,252.691C1538.6,259.219 1528.56,267.148 1519.7,276.488C1510.83,285.832 1503.6,296.898 1498,309.738C1492.4,322.57 1489.6,337.398 1489.6,354.191C1489.6,371.449 1493.21,387.551 1500.45,402.5C1507.68,417.43 1517.71,430.379 1530.55,441.34C1543.38,452.301 1558.55,460.832 1576.05,466.891C1593.55,472.949 1612.8,475.988 1633.8,475.988C1661.33,475.988 1686.76,470.75 1710.1,460.238C1733.43,449.738 1753.26,436.09 1769.6,419.289L1738.1,381.488C1724.1,395.02 1708.58,405.641 1691.55,413.352C1674.51,421.039 1655.26,424.898 1633.8,424.898C1608.13,424.898 1587.48,418.941 1571.85,407.051C1556.21,395.141 1548.4,378.699 1548.4,357.691C1548.4,346.488 1550.61,337.051 1555.05,329.34C1559.48,321.648 1565.43,314.879 1572.9,309.051C1580.36,303.199 1588.53,298.07 1597.4,293.648C1606.25,289.199 1615.36,285.121 1624.7,281.391L1689.8,253.391C1702.86,247.801 1715.23,241.371 1726.9,234.148C1738.56,226.898 1748.6,218.5 1757,208.941C1765.4,199.371 1772.05,188.172 1776.95,175.352C1781.85,162.512 1784.3,147.691 1784.3,130.891C1784.3,112.691 1780.68,95.648 1773.45,79.789C1766.21,63.922 1755.83,50.039 1742.3,38.141C1728.75,26.25 1712.43,16.898 1693.3,10.141C1674.16,3.379 1652.46,0 1628.2,0C1596,0 1566.13,6.059 1538.6,18.199C1511.06,30.332 1487.26,46.891 1467.2,67.898L1502.2,108.488" style="fill:white;fill-rule:nonzero;"/>
            <path id="path40" d="M1821.4,177.801C1821.4,206.262 1825.83,231.582 1834.7,253.75C1843.56,275.898 1855.46,294.691 1870.4,310.09C1885.33,325.488 1902.71,337.148 1922.55,345.09C1942.38,353.02 1963.26,357 1985.2,357C2007.6,357 2026.85,352.91 2042.95,344.738C2059.05,336.582 2072.93,327.121 2084.6,316.391L2055.9,279.289C2045.63,288.148 2035.01,295.398 2024.05,300.988C2013.08,306.602 2000.83,309.391 1987.3,309.391C1971.9,309.391 1957.66,306.25 1944.6,299.949C1931.53,293.648 1920.33,284.648 1911,272.988C1901.66,261.32 1894.31,247.449 1888.95,231.34C1883.58,215.238 1880.9,197.398 1880.9,177.801C1880.9,158.199 1883.46,140.449 1888.6,124.602C1893.73,108.73 1900.85,95.07 1909.95,83.648C1919.05,72.199 1930.13,63.352 1943.2,57.051C1956.26,50.75 1970.5,47.59 1985.9,47.59C2002.23,47.59 2017.05,50.969 2030.35,57.738C2043.65,64.512 2055.43,72.551 2065.7,81.891L2091.6,44.102C2076.2,30.551 2059.05,19.82 2040.15,11.891C2021.25,3.961 2001.53,0 1981,0C1958.6,0 1937.6,3.961 1918,11.891C1898.4,19.82 1881.48,31.371 1867.25,46.551C1853.01,61.699 1841.81,80.379 1833.65,102.539C1825.48,124.699 1821.4,149.789 1821.4,177.801" style="fill:white;fill-rule:nonzero;"/>
            <path id="path42" d="M2161.59,177.801C2161.59,158.199 2163.92,140.449 2168.59,124.602C2173.25,108.73 2179.9,95.07 2188.54,83.648C2197.17,72.199 2207.55,63.352 2219.69,57.051C2231.82,50.75 2245.12,47.59 2259.59,47.59C2274.05,47.59 2287.35,50.75 2299.49,57.051C2311.62,63.352 2322,72.199 2330.64,83.648C2339.28,95.07 2345.93,108.73 2350.6,124.602C2355.25,140.449 2357.6,158.199 2357.6,177.801C2357.6,197.398 2355.25,215.238 2350.6,231.34C2345.93,247.449 2339.28,261.32 2330.64,272.988C2322,284.648 2311.62,293.648 2299.49,299.949C2287.35,306.25 2274.05,309.391 2259.59,309.391C2245.12,309.391 2231.82,306.25 2219.69,299.949C2207.55,293.648 2197.17,284.648 2188.54,272.988C2179.9,261.32 2173.25,247.449 2168.59,231.34C2163.92,215.238 2161.59,197.398 2161.59,177.801ZM2102.09,177.801C2102.09,206.262 2106.4,231.582 2115.04,253.75C2123.67,275.898 2135.22,294.691 2149.69,310.09C2164.15,325.488 2180.84,337.148 2199.74,345.09C2218.64,353.02 2238.59,357 2259.59,357C2280.59,357 2300.55,353.02 2319.44,345.09C2338.35,337.148 2355.03,325.488 2369.49,310.09C2383.96,294.691 2395.51,275.898 2404.14,253.75C2412.77,231.582 2417.1,206.262 2417.1,177.801C2417.1,149.789 2412.77,124.699 2404.14,102.539C2395.51,80.379 2383.96,61.699 2369.49,46.551C2355.03,31.371 2338.35,19.82 2319.44,11.891C2300.55,3.961 2280.59,0 2259.59,0C2238.59,0 2218.64,3.961 2199.74,11.891C2180.84,19.82 2164.15,31.371 2149.69,46.551C2135.22,61.699 2123.67,80.379 2115.04,102.539C2106.4,124.699 2102.09,149.789 2102.09,177.801" style="fill:white;fill-rule:nonzero;"/>
            <path id="path44" d="M2482.19,301.691L2431.79,301.691L2431.79,345.09L2484.99,348.59L2491.99,443.789L2540.28,443.789L2540.28,348.59L2631.99,348.59L2631.99,301.691L2540.28,301.691L2540.28,112.691C2540.28,91.691 2544.14,75.469 2551.84,64.051C2559.54,52.602 2573.18,46.891 2592.78,46.891C2598.85,46.891 2605.39,47.832 2612.39,49.691C2619.38,51.559 2625.68,53.66 2631.29,55.988L2642.49,12.59C2633.14,9.32 2623,6.41 2612.04,3.84C2601.06,1.281 2590.21,0 2579.49,0C2561.29,0 2546,2.801 2533.64,8.391C2521.27,13.988 2511.24,21.691 2503.54,31.488C2495.84,41.289 2490.35,53.199 2487.09,67.191C2483.82,81.199 2482.19,96.602 2482.19,113.391L2482.19,301.691" style="fill:white;fill-rule:nonzero;"/>
            <path id="path46" d="M2676.79,506.789L2734.19,506.789L2734.19,72.801C2734.19,63.449 2735.82,56.922 2739.09,53.199C2742.34,49.449 2746.08,47.59 2750.28,47.59L2755.54,47.59C2757.17,47.59 2759.62,48.051 2762.89,48.988L2770.59,5.59C2766.85,3.738 2762.41,2.34 2757.29,1.391C2752.15,0.461 2745.62,0 2737.69,0C2715.74,0 2700.12,6.539 2690.79,19.602C2681.45,32.648 2676.79,51.789 2676.79,77L2676.79,506.789" style="fill:white;fill-rule:nonzero;"/>
            <path id="path48" d="M2859.48,100.801C2859.48,81.199 2865.19,67.191 2876.63,58.789C2888.06,50.398 2902.18,46.199 2918.98,46.199C2935.31,46.199 2950.83,50.039 2965.53,57.738C2980.23,65.441 2995.74,76.75 3012.08,91.691L3012.08,186.199C2983.61,182.461 2959.58,178.02 2939.98,172.898C2920.38,167.75 2904.63,161.691 2892.73,154.691C2880.83,147.691 2872.31,139.641 2867.18,130.539C2862.04,121.441 2859.48,111.52 2859.48,100.801ZM2802.78,96.602C2802.78,133.922 2819.46,162.512 2852.83,182.34C2886.19,202.172 2939.28,216.051 3012.08,223.988C3012.08,234.719 3011.03,245.219 3008.93,255.488C3006.83,265.762 3003.09,274.852 2997.73,282.801C2992.36,290.73 2985.24,297.141 2976.38,302.051C2967.51,306.949 2956.08,309.391 2942.08,309.391C2922.01,309.391 2903.46,305.648 2886.43,298.199C2869.38,290.73 2854.11,282.32 2840.58,272.988L2817.48,312.898C2833.34,323.148 2852.71,333.07 2875.58,342.641C2898.44,352.199 2923.64,357 2951.18,357C2992.71,357 3022.81,344.27 3041.48,318.84C3060.14,293.398 3069.48,259.449 3069.48,217L3069.48,8.391L3021.88,8.391L3016.98,48.988L3015.58,48.988C2999.24,35.449 2981.63,23.898 2962.73,14.34C2943.83,4.781 2923.88,0 2902.88,0C2873.94,0 2850.03,8.391 2831.13,25.191C2812.23,42 2802.78,65.801 2802.78,96.602" style="fill:white;fill-rule:nonzero;"/>
            <path id="path50" d="M3145.08,348.59L3192.68,348.59L3197.58,299.602L3199.68,299.602C3216.01,315.922 3233.15,329.582 3251.12,340.539C3269.08,351.5 3289.97,357 3313.77,357C3349.71,357 3375.96,345.801 3392.52,323.391C3409.08,300.988 3417.37,267.859 3417.37,223.988L3417.37,8.391L3359.97,8.391L3359.97,216.289C3359.97,248.488 3354.83,271.699 3344.57,285.941C3334.31,300.172 3317.97,307.289 3295.58,307.289C3277.83,307.289 3262.21,302.859 3248.67,293.988C3235.14,285.121 3219.74,272.059 3202.47,254.789L3202.47,8.391L3145.08,8.391L3145.08,348.59" style="fill:white;fill-rule:nonzero;"/>
            <path id="path52" d="M3534.98,178.488C3534.98,137.43 3543.13,105.449 3559.47,82.59C3575.8,59.719 3598.91,48.301 3628.78,48.301C3644.64,48.301 3659.58,52.141 3673.57,59.84C3687.58,67.539 3701.57,79.32 3715.58,95.191L3715.58,272.988C3701.1,286.051 3687.23,295.27 3673.93,300.641C3660.63,306 3646.97,308.699 3632.98,308.699C3619.43,308.699 3606.73,305.539 3594.82,299.238C3582.93,292.941 3572.54,284.082 3563.67,272.641C3554.8,261.211 3547.8,247.551 3542.68,231.691C3537.54,215.832 3534.98,198.09 3534.98,178.488ZM3475.48,177.801C3475.48,205.332 3479.55,230.172 3487.72,252.34C3495.89,274.512 3506.74,293.301 3520.27,308.699C3533.81,324.102 3549.43,335.988 3567.18,344.391C3584.9,352.801 3603.57,357 3623.17,357C3642.77,357 3659.8,353.488 3674.28,346.488C3688.73,339.5 3703.44,329.93 3718.38,317.801L3715.58,375.891L3715.58,506.789L3773.67,506.789L3773.67,8.391L3726.07,8.391L3721.17,48.301L3719.07,48.301C3705.54,35.219 3690.03,23.898 3672.53,14.34C3655.03,4.781 3636.23,0 3616.17,0C3573.23,0 3539.05,15.398 3513.62,46.199C3488.18,77 3475.48,120.852 3475.48,177.801" style="fill:white;fill-rule:nonzero;"/>
            <path id="path54" d="M4192.95,1193.53L3818.49,1193.53C3792.36,1193.53 3771.22,1172.36 3771.22,1146.26C3771.22,1120.16 3792.36,1099 3818.49,1099L4193.11,1099L4240.3,1146.18L4192.95,1193.53" style="fill:white;fill-rule:nonzero;"/>
            <path id="path56" d="M4421.16,1099L4795.8,1099C4821.9,1099 4843.07,1120.16 4843.07,1146.27C4843.07,1172.36 4821.9,1193.52 4795.8,1193.52L4421.32,1193.52L4373.97,1146.18L4421.16,1099" style="fill:white;fill-rule:nonzero;"/>
            <path id="path58" d="M4354.4,1260.28L4354.4,1632.69C4354.4,1658.79 4333.26,1679.96 4307.16,1679.96C4281.04,1679.96 4259.89,1658.79 4259.89,1632.69L4259.89,1260.28L4307.15,1213.03L4354.4,1260.28" style="fill:white;fill-rule:nonzero;"/>
            <path id="path60" d="M4259.9,1099L4193.11,1099L4012.89,918.766C3994.43,900.316 3994.43,870.363 4012.89,851.934C4022.1,842.695 4034.21,838.074 4046.32,838.074C4058.4,838.074 4070.51,842.695 4079.72,851.934L4259.88,1032.07L4259.9,1099" style="fill:white;fill-rule:nonzero;"/>
            <path id="path62" d="M4354.42,1032.07L4534.17,852.32C4543.38,843.078 4555.49,838.461 4567.57,838.461C4579.68,838.461 4591.79,843.078 4601,852.32C4619.46,870.777 4619.46,900.699 4601,919.16L4421.16,1099L4354.4,1099L4354.42,1032.07" style="fill:white;fill-rule:nonzero;"/>
            <path id="path64" d="M4259.9,1260.28L4070.2,1449.96C4051.76,1468.41 4021.82,1468.41 4003.36,1449.96C3984.9,1431.5 3984.9,1401.58 4003.36,1383.12L4192.96,1193.53L4259.9,1193.53L4259.9,1260.28" style="fill:white;fill-rule:nonzero;"/>
            <path id="path66" d="M4933.28,1772.32C4914.85,1790.79 4884.88,1790.79 4866.45,1772.32L4354.4,1260.27L4354.4,1193.52L4421.32,1193.52L4933.28,1705.5C4951.74,1723.95 4951.74,1753.86 4933.28,1772.32" style="fill:white;fill-rule:nonzero;"/>
            <path id="path68" d="M4354.4,1260.28L4307.15,1213.03L4259.89,1260.28L4259.89,1193.53L4192.95,1193.53L4240.3,1146.18L4272.9,1178.78C4282.24,1188.12 4294.5,1192.69 4306.74,1192.59C4306.89,1192.59 4307.02,1192.64 4307.15,1192.64C4307.28,1192.64 4307.41,1192.59 4307.54,1192.59C4319.78,1192.69 4332.06,1188.12 4341.38,1178.78L4373.97,1146.19L4421.32,1193.53L4354.4,1193.53L4354.4,1260.28" style="fill:white;fill-rule:nonzero;"/>
            <path id="path70" d="M4298.06,1099.93C4301.11,1099.34 4304.18,1099.03 4307.25,1099.03C4319.33,1099.03 4331.44,1103.63 4340.65,1112.86L4373.97,1146.18L4341.38,1178.77C4332.06,1188.13 4319.77,1192.69 4307.54,1192.58C4307.41,1192.58 4307.28,1192.64 4307.15,1192.64C4307.02,1192.64 4306.89,1192.58 4306.74,1192.58C4294.5,1192.69 4282.24,1188.13 4272.89,1178.77L4240.3,1146.18L4273.56,1112.91C4280.51,1105.97 4289.1,1101.63 4298.06,1099.93" style="fill:white;fill-rule:nonzero;"/>
            <path id="path72" d="M4340.66,1112.87C4331.44,1103.62 4319.34,1099.03 4307.26,1099.03C4304.18,1099.03 4301.11,1099.34 4298.07,1099.94C4289.11,1101.64 4280.51,1105.98 4273.57,1112.92L4240.3,1146.18L4193.12,1099L4259.9,1099L4259.9,655.352C4259.9,648.82 4261.22,642.621 4263.6,636.961C4270.78,620 4287.58,608.09 4307.16,608.09C4323.46,608.09 4337.84,616.359 4346.34,628.93C4351.43,636.469 4354.4,645.559 4354.4,655.352L4354.4,1099L4421.17,1099L4373.98,1146.19L4340.66,1112.87" style="fill:white;fill-rule:nonzero;"/>
        </g>
    </g>
</svg>
